<?xml version="1.0" encoding="utf-8"?>
<!-- Generator: Adobe Illustrator 25.0.1, SVG Export Plug-In . SVG Version: 6.00 Build 0)  -->
<svg version="1.1" id="Livello_1" xmlns="http://www.w3.org/2000/svg" xmlns:xlink="http://www.w3.org/1999/xlink" x="0px" y="0px"
	 viewBox="0 0 646.3 147.9" style="enable-background:new 0 0 646.3 147.9;" xml:space="preserve">
<style type="text/css">
	.st0{fill:none;stroke:#3C3C3B;stroke-width:0.5;stroke-linecap:round;stroke-linejoin:round;}
	.st1{fill:#1D1D1B;}
	.st2{font-family:'PalatinoLinotype-Roman';}
	.st3{font-size:12px;}
	.st4{fill:#2FAC66;}
	.st5{fill:#E6332A;stroke:#E6332A;stroke-width:2.3876;stroke-miterlimit:10;}
</style>
<polyline class="st0" points="45.3,147.6 45.3,25.3 546.5,25.3 "/>
<line class="st0" x1="45.3" y1="147.6" x2="546.5" y2="147.6"/>
<line class="st0" x1="45.3" y1="86.5" x2="646.1" y2="86.5"/>
<line class="st0" x1="546.5" y1="25.3" x2="546.5" y2="147.6"/>
<line class="st0" x1="546.5" y1="25.3" x2="646.1" y2="25.3"/>
<line class="st0" x1="144.9" y1="147.6" x2="646.1" y2="147.6"/>
<path class="st0" d="M646.1,86.5"/>
<path class="st0" d="M145,86.5"/>
<line class="st0" x1="646.1" y1="25.3" x2="646.1" y2="147.6"/>
<line class="st0" x1="446.2" y1="25.3" x2="446.2" y2="147.6"/>
<line class="st0" x1="346" y1="25.3" x2="346" y2="147.6"/>
<line class="st0" x1="245.8" y1="25.3" x2="245.8" y2="147.6"/>
<line class="st0" x1="145.6" y1="25.3" x2="145.6" y2="147.6"/>
<text transform="matrix(1 0 0 1 0 54.86)" class="st1 st2 st3">DEM</text>
<text transform="matrix(1 0 0 1 0 124.49)" class="st1 st2 st3">Mappe</text>
<text transform="matrix(1 0 0 1 75.3831 16.2115)" class="st1 st2 st3">Licenza</text>
<text transform="matrix(1 0 0 1 159.8524 16.2118)" class="st1 st2 st3">Commerciale</text>
<text transform="matrix(1 0 0 1 262.5607 16.2118)" class="st1 st2 st3">Accessibilità</text>
<text transform="matrix(1 0 0 1 361.6308 10.7118)" class="st1 st2 st3">Organicità e </text>
<text transform="matrix(1 0 0 1 370.4843 21.7118)" class="st1 st2 st3"> coerenza</text>
<text transform="matrix(1 0 0 1 478.2104 16.2115)" class="st1 st2 st3">Qualità</text>
<text transform="matrix(1 0 0 1 570.5979 16.2115)" class="st1 st2 st3">Download</text>
<path class="st4" d="M488.7,52.7c0.6,0,1.1,0.6,1.4,1.7c0.6,2.1,1.1,3.2,1.4,3.2s0.4-0.2,0.7-0.5c3.8-6.7,8-13.1,12.7-19.2
	c1-1.3,2.6-1.9,4.8-1.9c0.4,0,0.7,0,1,0.2c0.2,0.1,0.3,0.2,0.3,0.4c-0.1,0.5-0.4,1-0.8,1.5C503.8,46.4,498,55,492.7,64
	c-0.5,0.7-1.4,1.1-2.3,1c-0.7,0-1.4,0-2.1-0.2c-0.6-0.3-1.2-1.6-2-4c-0.6-1.6-1-3.3-1.3-5.1c0-0.7,0.6-1.5,1.7-2.1
	C487.4,53,488,52.7,488.7,52.7z"/>
<path class="st4" d="M386,114.2c0.6,0,1.1,0.6,1.5,1.7c0.6,2.1,1.1,3.2,1.4,3.2s0.4-0.2,0.7-0.5c3.8-6.7,8-13.1,12.7-19.2
	c1.2-1.4,3-2.1,4.8-1.9c0.4,0,0.7,0,1.1,0.2c0.2,0.1,0.3,0.2,0.3,0.4c-0.1,0.5-0.4,1-0.8,1.4c-6.4,8.3-12.2,16.9-17.5,25.9
	c-0.5,0.7-1.4,1.1-2.3,1c-0.7,0.1-1.4,0-2.1-0.2c-0.5-0.3-1.2-1.6-2-4c-0.6-1.6-1-3.3-1.3-5.1c0-0.7,0.6-1.5,1.7-2.1
	C384.7,114.5,385.3,114.2,386,114.2z"/>
<path class="st4" d="M589.4,52.7c0.6,0,1.1,0.6,1.4,1.7c0.7,2.1,1.1,3.2,1.4,3.2s0.4-0.2,0.7-0.5c3.8-6.7,8-13.1,12.7-19.2
	c1-1.3,2.6-1.9,4.8-1.9c0.4,0,0.7,0,1,0.2c0.2,0.1,0.3,0.2,0.3,0.4c-0.1,0.5-0.4,1-0.8,1.5c-6.4,8.3-12.2,16.9-17.5,25.9
	c-0.5,0.7-1.4,1.1-2.3,1c-0.7,0-1.4,0-2.1-0.2c-0.6-0.3-1.2-1.6-2-4c-0.6-1.6-1-3.3-1.3-5.1c0-0.7,0.6-1.5,1.7-2.1
	C588.1,53,588.8,52.7,589.4,52.7z"/>
<path class="st4" d="M86.5,52.7c0.6,0,1.1,0.6,1.4,1.7c0.7,2.1,1.1,3.2,1.4,3.2s0.4-0.2,0.7-0.5c3.8-6.7,8-13.1,12.7-19.2
	c1-1.3,2.6-1.9,4.8-1.9c0.3,0,0.7,0,1,0.2c0.2,0.1,0.3,0.2,0.3,0.4c-0.1,0.5-0.4,1-0.8,1.5C101.6,46.4,95.8,55,90.5,64
	c-0.5,0.7-1.4,1.1-2.3,1c-0.7,0-1.4,0-2.1-0.2c-0.6-0.3-1.2-1.6-2-4c-0.6-1.6-1-3.3-1.3-5.1c0-0.7,0.6-1.5,1.7-2.1
	C85.1,53,85.7,52.7,86.5,52.7z"/>
<path class="st5" d="M404.3,46.7c0.1,0,0.1,0,0.1,0.1v0.1c-2.2,2.5-4.2,5.1-6.1,7.7c-0.1,0-1.1,1.4-3.1,4.1c1.6,1.9,3.1,4,4.4,6.2
	c0.8,1.1,1.4,2.1,2,3V68c0,0.1,0,0.1-0.1,0.1c-0.6-0.9-1.2-1.8-1.7-2.7c-0.5-0.8-2.1-2.7-4.7-5.8c0-0.1-0.1-0.2-0.3-0.4
	c-0.2,0.4-0.4,0.6-0.5,0.6c1.9,2.5,3.7,5.1,5.4,7.8c0.3,0.3,0.5,0.5,0.5,0.7l-0.1,0.1l-2.1-1.7l0,0c1.4,1.8,2.9,3.4,4.6,4.9v0.1
	h-0.1c-2-1.8-3.8-3.7-5.3-5.9c-1.4-1.5-2.6-3.2-3.6-4.9l0,0c-2.2,2.9-4.2,5.4-5.9,7.5h-0.1c-0.1,0-0.1,0-0.1-0.1l0,0
	c1.6-1.9,3.1-3.7,4.4-5.4c0.2-0.2,0.8-0.9,1.7-2.1c-0.2-0.4-0.3-0.6-0.5-0.7s-1.7,1.9-4.9,5.7c-0.3,0.2-0.6,0.5-0.8,0.8
	c-0.2,0.2-0.5,0.3-0.7,0.3l-0.1-0.2c0.6-0.7,2.6-3.2,6.1-7.6V59c-1.4-3.1-3-6.1-4.8-9c0,0,0-0.1,0-0.2l0,0c-0.3-0.4-0.5-0.7-0.7-1.1
	l0,0c0-0.1,0-0.1,0.1-0.1c0.6,0.6,1.1,1.2,1.6,1.8l0.2-0.1c0.1,0.1,0.3,0.4,0.5,0.9c1.3,2.2,2.8,4.2,4.5,6c0.1,0,0.5-0.4,1.1-1.3
	c2-2.3,4.2-4.6,6.5-6.9C402.4,48.2,403.3,47.4,404.3,46.7L404.3,46.7z M387,66.3L387,66.3L387,66.3c0.4-0.2,0.8-0.5,1-0.9
	c-0.1,0-0.1-0.1-0.1-0.2S387.5,65.6,387,66.3z M388,49.9L388,49.9c1.3,2.6,2.7,5,4.3,7.3c0.2,0.4,0.5,0.7,0.8,1.1
	c0.3-0.2,0.5-0.4,0.5-0.6c-1.1-1.6-2.2-3.2-3.5-4.8c-0.2-0.4-0.4-0.7-0.7-1.1v0.3h-0.1c-0.1-0.7-0.5-1.3-1-1.8
	C388.2,50.2,388.1,50.1,388,49.9z M388.2,64.9L388.2,64.9c0.4-0.3,2-2.1,4.6-5.2c-0.1-0.3-0.2-0.4-0.3-0.4l0,0
	C391,61.1,389.5,63,388.2,64.9L388.2,64.9z M391.1,55.9L391.1,55.9c0.9,1.9,1.4,2.8,1.4,2.9s0.1,0.2,0.2,0.2s0.2-0.1,0.2-0.2
	C391.9,57.1,391.3,56.2,391.1,55.9L391.1,55.9z M392.3,57.5L392.3,57.5c0.2,0.4,0.4,0.8,0.7,1.1v-0.2
	C392.7,58.1,392.5,57.8,392.3,57.5L392.3,57.5z M392.8,58.9c-0.1,0.2-0.1,0.2-0.2,0.2c0.1,0.3,0.2,0.5,0.3,0.5s0.1-0.1,0.2-0.2
	C393.1,59.2,393,59,392.8,58.9L392.8,58.9z M392.8,56.4c0.3,0.4,0.6,0.8,0.8,1.2h0.2v-0.2C393.5,57,393.2,56.7,392.8,56.4
	L392.8,56.4z M393,58.7v0.2c0.1,0.3,0.2,0.4,0.3,0.4l0.1-0.2c-0.1-0.3-0.2-0.4-0.3-0.4H393z M393.1,60l0.4,0.6
	c0.1,0,0.2-0.2,0.2-0.3c-0.2-0.4-0.3-0.5-0.4-0.6S393.1,59.8,393.1,60L393.1,60z M393.2,58.4L393.2,58.4c0.1,0.2,0.2,0.3,0.2,0.5
	l0,0c0.2-0.1,0.4-0.3,0.5-0.6c-0.2-0.3-0.3-0.5-0.3-0.5C393.5,58,393.3,58.2,393.2,58.4L393.2,58.4z M393.4,59.5
	c0.1,0.2,0.3,0.5,0.5,0.7c0.1-0.1,0.1-0.2,0.2-0.3l-0.5-0.5C393.5,59.3,393.5,59.4,393.4,59.5L393.4,59.5z M393.7,60.5
	c-0.1,0.1-0.1,0.2-0.1,0.3c0.7,1.3,1.6,2.6,2.6,3.7l0,0L393.7,60.5L393.7,60.5z M393.7,59.1L393.7,59.1c0.1,0.2,0.2,0.4,0.3,0.6h0.1
	c0.3-0.3,0.5-0.5,0.5-0.6c-0.1-0.2-0.2-0.4-0.4-0.5C394,58.8,393.9,58.9,393.7,59.1L393.7,59.1z M393.9,57.6L393.9,57.6
	c0,0.3,0.1,0.4,0.3,0.6l0,0c0.1,0,0.1,0,0.1-0.1V58c0-0.1-0.1-0.2-0.3-0.3h-0.1V57.6z M394.1,60c0,0.1-0.1,0.2-0.1,0.2v0.2
	c1,1.9,2.2,3.7,3.4,5.4c0.8,0.7,1.4,1.3,1.9,1.6h0.1C397.8,64.9,396,62.4,394.1,60L394.1,60z M394.1,57.4c0.1,0.1,0.2,0.3,0.3,0.4
	h0.1c3.1-3.5,5.7-6.5,7.8-9.1l0,0c-2,1.8-3.8,3.7-5.6,5.7C395.6,55.4,394.8,56.5,394.1,57.4L394.1,57.4z M394.4,58.4L394.4,58.4
	c0.2,0.4,0.4,0.5,0.4,0.5l0.2-0.2v-0.1c-0.2-0.3-0.3-0.4-0.4-0.4S394.4,58.3,394.4,58.4L394.4,58.4z M401,50.6
	c-0.6,0.8-2.1,2.5-4.5,5.2c-1.2,1.4-1.8,2.1-1.8,2.1V58c0.1,0.1,0.2,0.3,0.3,0.5c0.6-0.6,1.1-1.2,1.6-1.9
	C397.5,55.5,399,53.5,401,50.6L401,50.6L401,50.6z M395,58.8l-0.2,0.3c1.2,1.7,2.6,3.3,4,4.8l0,0c-0.8-1.3-1.8-2.6-2.8-3.9
	C395.8,59.6,395.4,59.2,395,58.8L395,58.8z M401.3,50.2l-0.3,0.4l0,0l0,0C401.2,50.4,401.3,50.3,401.3,50.2L401.3,50.2z M401.6,49.9
	L401.6,49.9c0.4-0.3,0.6-0.6,0.8-1l0,0C402.1,49.2,401.8,49.6,401.6,49.9L401.6,49.9z M403,48l0.1,0.1l-0.1,0.1l0,0h0.1l0.7-1l0,0
	C403.2,47.7,403,47.9,403,48L403,48z"/>
<path class="st5" d="M304.5,46.7c0.1,0,0.1,0,0.1,0.1v0.1c-2.2,2.5-4.2,5.1-6.1,7.7c-0.1,0-1.1,1.4-3.1,4.1c1.6,1.9,3.1,4,4.4,6.2
	c0.8,1.1,1.4,2.1,2,3V68c0,0.1,0,0.1-0.1,0.1l0,0c-0.6-0.9-1.2-1.8-1.7-2.7c-0.5-0.8-2.1-2.7-4.7-5.8c0-0.1-0.1-0.2-0.3-0.4
	c-0.2,0.4-0.4,0.6-0.5,0.6c1.9,2.5,3.7,5.1,5.4,7.8c0.3,0.3,0.5,0.5,0.5,0.7l-0.1,0.1l-2.1-1.7l0,0c1.4,1.8,2.9,3.4,4.6,4.9v0.1
	h-0.1c-2-1.8-3.8-3.7-5.3-5.9c-1.4-1.5-2.6-3.2-3.6-4.9l0,0c-2.2,2.9-4.2,5.4-5.9,7.5l0,0c-0.1,0-0.1,0-0.1-0.1l0,0
	c1.6-1.9,3.1-3.7,4.4-5.4c0.2-0.2,0.8-0.9,1.7-2.1c-0.2-0.4-0.3-0.6-0.5-0.7s-1.7,1.9-4.9,5.7c-0.3,0.2-0.6,0.5-0.8,0.8
	c-0.2,0.2-0.5,0.3-0.7,0.3l-0.1-0.2c0.6-0.7,2.6-3.2,6.1-7.6V59c-1.4-3.1-3-6.1-4.8-9c0,0,0-0.1,0-0.2l0,0c-0.3-0.4-0.5-0.7-0.7-1.1
	l0,0c0-0.1,0-0.1,0.1-0.1c0.6,0.6,1.2,1.2,1.7,1.8l0.2-0.1c0.1,0.1,0.3,0.4,0.5,0.9c1.3,2.2,2.8,4.2,4.5,6c0.1,0,0.5-0.4,1.1-1.3
	c2-2.3,4.2-4.6,6.5-6.9C302.6,48.1,303.5,47.3,304.5,46.7L304.5,46.7z M287.2,66.3L287.2,66.3L287.2,66.3c0.4-0.2,0.7-0.5,1-0.9
	c-0.1,0-0.1-0.1-0.1-0.2S287.7,65.6,287.2,66.3z M288.2,49.9L288.2,49.9c1.3,2.6,2.7,5,4.3,7.3c0.2,0.4,0.5,0.7,0.8,1.1
	c0.3-0.2,0.5-0.4,0.5-0.6c-1.1-1.6-2.2-3.2-3.5-4.8c-0.2-0.4-0.4-0.7-0.7-1.1v0.3h-0.1c-0.1-0.7-0.5-1.3-1-1.8
	C288.4,50.2,288.3,50.1,288.2,49.9z M288.4,64.9L288.4,64.9c0.4-0.3,2-2.1,4.6-5.2c-0.1-0.3-0.2-0.4-0.3-0.4l0,0
	C291.2,61.1,289.7,63,288.4,64.9L288.4,64.9z M291.3,55.9L291.3,55.9c0.9,1.9,1.4,2.8,1.4,2.9s0.1,0.2,0.2,0.2s0.2-0.1,0.2-0.2
	C292.1,57.1,291.5,56.2,291.3,55.9L291.3,55.9z M292.5,57.5L292.5,57.5c0.2,0.4,0.4,0.8,0.7,1.1v-0.2
	C292.9,58.1,292.7,57.8,292.5,57.5L292.5,57.5z M293.1,58.9c-0.1,0.2-0.1,0.2-0.2,0.2c0.1,0.3,0.2,0.5,0.3,0.5s0.1-0.1,0.2-0.2
	C293.3,59.2,293.2,59,293.1,58.9L293.1,58.9z M293.1,56.4c0.3,0.4,0.5,0.8,0.8,1.2h0.2v-0.2C293.8,57,293.5,56.7,293.1,56.4
	L293.1,56.4z M293.2,58.7v0.2c0.1,0.3,0.2,0.4,0.3,0.4l0.1-0.2c-0.1-0.3-0.2-0.4-0.3-0.4H293.2z M293.3,60l0.4,0.6
	c0.1,0,0.2-0.2,0.2-0.3c-0.2-0.4-0.3-0.5-0.4-0.6S293.3,59.8,293.3,60L293.3,60z M293.5,58.4L293.5,58.4c0.1,0.2,0.2,0.3,0.2,0.5
	l0,0c0.2-0.1,0.4-0.3,0.5-0.6c-0.2-0.3-0.3-0.5-0.3-0.5C293.7,58,293.6,58.2,293.5,58.4L293.5,58.4z M293.6,59.5
	c0.1,0.2,0.3,0.5,0.5,0.7c0.1-0.1,0.1-0.2,0.2-0.3l-0.5-0.5C293.7,59.3,293.7,59.4,293.6,59.5L293.6,59.5z M294,60.5
	c-0.1,0.1-0.1,0.2-0.1,0.3c0.7,1.3,1.6,2.6,2.6,3.7l0,0L294,60.5L294,60.5z M294,59.1L294,59.1c0.1,0.2,0.2,0.4,0.3,0.6h0.1
	c0.3-0.3,0.5-0.5,0.5-0.6c-0.1-0.2-0.2-0.4-0.4-0.5C294.3,58.7,294.1,58.9,294,59.1L294,59.1z M294.1,57.6L294.1,57.6
	c0,0.3,0.1,0.4,0.3,0.6l0,0c0.1,0,0.1,0,0.1-0.1V58c0-0.1-0.1-0.2-0.3-0.3h-0.1V57.6z M294.3,60c0,0.1-0.1,0.2-0.1,0.2v0.2
	c1,1.9,2.2,3.7,3.4,5.4c0.8,0.7,1.4,1.3,1.9,1.6h0.1c-1.5-2.6-3.2-5.1-5.1-7.4H294.3z M294.3,57.4c0.1,0.1,0.2,0.3,0.3,0.4h0.1
	c3.1-3.5,5.7-6.5,7.8-9.1l0,0c-2,1.8-3.8,3.7-5.6,5.7C295.9,55.4,295,56.5,294.3,57.4L294.3,57.4z M294.6,58.4L294.6,58.4
	c0.2,0.4,0.4,0.5,0.4,0.5l0.2-0.2v-0.1c-0.2-0.3-0.3-0.4-0.4-0.4S294.6,58.3,294.6,58.4L294.6,58.4z M301.2,50.6
	c-0.6,0.8-2.1,2.5-4.5,5.2c-1.2,1.4-1.8,2.1-1.8,2.1V58c0.1,0.1,0.2,0.3,0.3,0.5c0.6-0.6,1.1-1.2,1.6-1.9
	C297.7,55.5,299.2,53.5,301.2,50.6L301.2,50.6L301.2,50.6z M295.2,58.8l-0.2,0.3c1.2,1.7,2.6,3.3,4,4.8l0,0
	c-0.8-1.3-1.8-2.6-2.8-3.9C296,59.6,295.6,59.2,295.2,58.8L295.2,58.8z M301.6,50.2l-0.3,0.4l0,0l0,0
	C301.4,50.4,301.5,50.3,301.6,50.2L301.6,50.2z M301.8,49.9L301.8,49.9c0.4-0.3,0.6-0.6,0.8-1l0,0C302.3,49.2,302,49.6,301.8,49.9
	L301.8,49.9z M303.2,48l0.1,0.1l-0.1,0.1l0,0h0.1l0.7-1l0,0C303.4,47.7,303.2,47.9,303.2,48L303.2,48z"/>
<path class="st5" d="M204,46.7c0.1,0,0.1,0,0.1,0.1v0.1c-2.2,2.5-4.2,5.1-6.1,7.7c-0.1,0-1.1,1.4-3.1,4.1c1.6,1.9,3.1,4,4.4,6.2
	c0.8,1.1,1.4,2.1,2,3V68c0,0.1,0,0.1-0.1,0.1l0,0c-0.6-0.9-1.2-1.8-1.7-2.7c-0.5-0.8-2.1-2.7-4.7-5.8c0-0.1-0.1-0.2-0.3-0.4
	c-0.2,0.4-0.4,0.6-0.5,0.6c1.9,2.5,3.7,5.1,5.4,7.8c0.3,0.3,0.5,0.5,0.5,0.7l-0.1,0.1l-2.1-1.7l0,0c1.4,1.8,2.9,3.4,4.6,4.9v0.1
	h-0.1c-2-1.8-3.8-3.7-5.3-5.9c-1.4-1.5-2.6-3.2-3.6-4.9l0,0c-2.2,2.9-4.2,5.4-5.9,7.5l0,0c-0.1,0-0.1,0-0.1-0.1l0,0
	c1.6-1.9,3.1-3.7,4.4-5.4c0.2-0.2,0.8-0.9,1.7-2.1c-0.2-0.4-0.3-0.6-0.5-0.7s-1.7,1.9-4.9,5.7c-0.3,0.2-0.6,0.5-0.8,0.8
	c-0.2,0.2-0.5,0.3-0.7,0.3l-0.1-0.2c0.6-0.7,2.6-3.2,6.1-7.6V59c-1.4-3.1-3-6.1-4.8-9c0,0,0-0.1,0-0.2l0,0c-0.3-0.4-0.5-0.7-0.7-1.1
	l0,0c0-0.1,0-0.1,0.1-0.1c0.6,0.6,1.2,1.2,1.7,1.8l0.2-0.1c0.1,0.1,0.3,0.4,0.5,0.9c1.3,2.2,2.8,4.2,4.5,6c0.1,0,0.5-0.4,1.1-1.3
	c2-2.3,4.2-4.6,6.5-6.9C202,48.1,203,47.3,204,46.7L204,46.7z M186.6,66.3L186.6,66.3L186.6,66.3c0.4-0.2,0.7-0.5,1-0.9
	c-0.1,0-0.1-0.1-0.1-0.2S187.1,65.6,186.6,66.3z M187.6,49.9L187.6,49.9c1.3,2.6,2.7,5,4.3,7.3c0.2,0.4,0.5,0.7,0.8,1.1
	c0.3-0.2,0.5-0.4,0.5-0.6c-1.1-1.6-2.2-3.2-3.5-4.8c-0.2-0.4-0.4-0.7-0.7-1.1v0.3h-0.1c-0.1-0.7-0.5-1.3-1-1.8
	C187.8,50.2,187.7,50.1,187.6,49.9z M187.8,64.9L187.8,64.9c0.4-0.3,2-2.1,4.6-5.2c-0.1-0.3-0.2-0.4-0.3-0.4l0,0
	C190.6,61.1,189.2,63,187.8,64.9L187.8,64.9z M190.7,55.9L190.7,55.9c0.9,1.9,1.4,2.8,1.4,2.9s0.1,0.2,0.2,0.2s0.2-0.1,0.2-0.2
	C191.5,57.1,190.9,56.2,190.7,55.9L190.7,55.9z M191.9,57.5L191.9,57.5c0.2,0.4,0.4,0.8,0.7,1.1v-0.2
	C192.4,58.1,192.2,57.8,191.9,57.5L191.9,57.5z M192.5,58.9c-0.1,0.2-0.1,0.2-0.2,0.2c0.1,0.3,0.2,0.5,0.3,0.5s0.1-0.1,0.2-0.2
	C192.7,59.2,192.6,59,192.5,58.9L192.5,58.9z M192.5,56.4c0.3,0.4,0.5,0.8,0.8,1.2h0.2v-0.2C193.2,57,192.9,56.7,192.5,56.4
	L192.5,56.4z M192.7,58.7v0.2c0.1,0.3,0.2,0.4,0.3,0.4l0.1-0.2c-0.1-0.3-0.2-0.4-0.3-0.4H192.7z M192.8,60l0.4,0.6
	c0.1,0,0.2-0.2,0.2-0.3c-0.2-0.4-0.3-0.5-0.4-0.6S192.8,59.8,192.8,60L192.8,60z M192.9,58.4L192.9,58.4c0.1,0.2,0.2,0.3,0.2,0.5
	l0,0c0.2-0.1,0.4-0.3,0.5-0.6c-0.2-0.3-0.3-0.5-0.3-0.5C193.1,58,193,58.2,192.9,58.4L192.9,58.4z M193,59.5
	c0.1,0.2,0.3,0.5,0.5,0.7c0.1-0.1,0.1-0.2,0.2-0.3l-0.5-0.5C193.1,59.3,193.1,59.4,193,59.5L193,59.5z M193.4,60.5
	c-0.1,0.1-0.1,0.2-0.1,0.3c0.7,1.3,1.6,2.6,2.6,3.7l0,0L193.4,60.5L193.4,60.5z M193.4,59.1L193.4,59.1c0.1,0.2,0.2,0.4,0.3,0.6h0.1
	c0.3-0.3,0.5-0.5,0.5-0.6c-0.1-0.2-0.2-0.4-0.4-0.5C193.7,58.7,193.5,58.9,193.4,59.1L193.4,59.1z M193.5,57.6L193.5,57.6
	c0,0.3,0.1,0.4,0.3,0.6l0,0c0.1,0,0.1,0,0.1-0.1V58c0-0.1-0.1-0.2-0.3-0.3h-0.1V57.6z M193.7,60c0,0.1-0.1,0.2-0.1,0.2v0.2
	c1,1.9,2.2,3.7,3.4,5.4c0.8,0.7,1.4,1.3,1.9,1.6h0.1c-1.5-2.6-3.2-5.1-5.1-7.4H193.7z M193.7,57.4c0.1,0.1,0.2,0.3,0.3,0.4h0.1
	c3.1-3.5,5.7-6.5,7.8-9.1l0,0c-2,1.8-3.8,3.7-5.6,5.7C195.3,55.4,194.4,56.5,193.7,57.4L193.7,57.4z M194,58.4L194,58.4
	c0.2,0.4,0.4,0.5,0.4,0.5l0.2-0.2v-0.1c-0.2-0.3-0.3-0.4-0.4-0.4S194.1,58.3,194,58.4L194,58.4z M200.6,50.6
	c-0.6,0.8-2.1,2.5-4.5,5.2c-1.2,1.4-1.8,2.1-1.8,2.1V58c0.1,0.1,0.2,0.3,0.3,0.5c0.6-0.6,1.1-1.2,1.6-1.9
	C197.1,55.5,198.6,53.5,200.6,50.6L200.6,50.6L200.6,50.6z M194.7,58.8l-0.2,0.3c1.2,1.7,2.6,3.3,4,4.8l0,0
	c-0.8-1.3-1.8-2.6-2.8-3.9C195.4,59.6,195.1,59.2,194.7,58.8L194.7,58.8z M201,50.2l-0.3,0.4l0,0l0,0
	C200.8,50.4,200.9,50.3,201,50.2L201,50.2z M201.2,49.9L201.2,49.9c0.4-0.3,0.6-0.6,0.8-1l0,0C201.7,49.2,201.5,49.6,201.2,49.9
	L201.2,49.9z M202.6,48l0.1,0.1l-0.1,0.1l0,0h0.1l0.7-1l0,0C202.8,47.7,202.6,47.9,202.6,48L202.6,48z"/>
<path class="st5" d="M304.6,108.2c0.1,0,0.1,0,0.1,0.1l0,0l0,0c-2.2,2.5-4.2,5.1-6.1,7.7c-0.1,0-1.1,1.4-3.1,4.1
	c1.6,1.9,3.1,4,4.4,6.2c0.8,1.1,1.4,2.1,2,3v0.2c0,0.1,0,0.1-0.1,0.1l0,0c-0.6-0.9-1.2-1.8-1.7-2.7c-0.6-0.8-2.1-2.7-4.7-5.8
	c0-0.1-0.1-0.2-0.3-0.4c-0.2,0.4-0.4,0.6-0.5,0.6c1.9,2.5,3.7,5.1,5.4,7.8c0.3,0.3,0.5,0.5,0.5,0.7l-0.1,0.1l-2.1-1.7v0.1
	c1.4,1.8,2.9,3.4,4.6,4.9v0.1h-0.1c-2-1.8-3.8-3.7-5.3-5.9c-1.4-1.5-2.6-3.1-3.6-4.9h-0.1c-2.2,2.9-4.2,5.4-5.9,7.5h-0.1
	c-0.1,0-0.1,0-0.1-0.1l0,0c1.6-1.9,3.1-3.7,4.4-5.4c0.2-0.2,0.8-0.9,1.7-2.1c-0.2-0.4-0.3-0.6-0.4-0.7s-1.7,1.9-4.9,5.7
	c-0.3,0.2-0.6,0.5-0.8,0.8c-0.2,0.2-0.5,0.3-0.7,0.3l-0.1-0.2c0.6-0.7,2.6-3.2,6.1-7.6l0,0c-1.4-3.1-3-6.1-4.8-9c0,0-0.1,0-0.1-0.2
	h0.1c-0.3-0.4-0.5-0.7-0.7-1.1v-0.1c0-0.1,0-0.1,0.1-0.1c0.6,0.6,1.2,1.2,1.7,1.8l0.2-0.1c0.1,0,0.3,0.3,0.5,0.9
	c1.3,2.2,2.8,4.2,4.5,6c0.1,0,0.5-0.4,1.1-1.3c2-2.3,4.2-4.6,6.5-6.9C302.7,109.7,303.6,108.9,304.6,108.2L304.6,108.2z
	 M287.3,127.8L287.3,127.8L287.3,127.8c0.4-0.3,0.7-0.6,1-1c-0.1,0-0.1-0.1-0.1-0.2C287.8,127,287.5,127.4,287.3,127.8z
	 M288.3,111.4L288.3,111.4c1.3,2.6,2.7,5,4.3,7.3c0.2,0.4,0.5,0.7,0.8,1.1c0.3-0.2,0.5-0.4,0.5-0.6c-1.1-1.6-2.2-3.2-3.5-4.8
	c-0.2-0.4-0.4-0.7-0.7-1.1v0.3h-0.1c-0.1-0.7-0.5-1.3-1-1.8C288.5,111.6,288.4,111.5,288.3,111.4z M288.5,126.4L288.5,126.4
	c0.4-0.4,2-2.1,4.6-5.2c-0.1-0.3-0.2-0.4-0.3-0.4l0,0C291.3,122.6,289.8,124.4,288.5,126.4L288.5,126.4z M291.3,117.3L291.3,117.3
	c0.9,1.9,1.4,2.8,1.4,2.9s0.1,0.2,0.2,0.2s0.2-0.1,0.2-0.2C292.1,118.6,291.6,117.7,291.3,117.3L291.3,117.3z M292.6,119L292.6,119
	c0.2,0.4,0.4,0.8,0.7,1.1v-0.2C292.9,119.4,292.7,119.1,292.6,119L292.6,119z M293.1,120.4c-0.1,0.2-0.1,0.2-0.2,0.2
	c0.1,0.3,0.2,0.4,0.3,0.4s0.1-0.1,0.2-0.2C293.4,120.7,293.3,120.5,293.1,120.4L293.1,120.4z M293.1,117.8c0.3,0.4,0.6,0.8,0.8,1.2
	h0.2v-0.2C293.8,118.5,293.5,118.2,293.1,117.8L293.1,117.8z M293.3,120.1v0.2c0.1,0.3,0.2,0.4,0.3,0.4l0.1-0.2
	c-0.1-0.3-0.2-0.4-0.3-0.4H293.3z M293.4,121.5l0.4,0.6c0.1,0,0.2-0.2,0.2-0.3c-0.2-0.4-0.3-0.6-0.4-0.6S293.4,121.3,293.4,121.5
	L293.4,121.5z M293.5,119.9L293.5,119.9c0.1,0.1,0.2,0.2,0.2,0.4h0.1c0.2-0.1,0.4-0.3,0.5-0.6c-0.2-0.3-0.3-0.4-0.3-0.4
	C293.8,119.5,293.6,119.7,293.5,119.9L293.5,119.9z M293.7,121c0.1,0.2,0.3,0.5,0.5,0.7c0.1-0.1,0.1-0.2,0.2-0.3l-0.5-0.5
	C293.8,120.8,293.7,120.9,293.7,121L293.7,121z M294,122c-0.1,0.1-0.1,0.2-0.1,0.3c0.7,1.3,1.6,2.6,2.6,3.7v-0.1L294,122L294,122z
	 M294,120.6L294,120.6c0.1,0.2,0.2,0.4,0.3,0.6l0,0c0.3-0.3,0.5-0.5,0.5-0.6c-0.1-0.2-0.2-0.4-0.4-0.5
	C294.5,120,294.3,120.2,294,120.6L294,120.6z M294.1,119.1L294.1,119.1c0,0.2,0.1,0.4,0.3,0.5h0.1c0.1,0,0.1,0,0.1-0.1l0,0v-0.1
	c0,0-0.1-0.2-0.3-0.3H294.1z M294.4,121.5c0,0.1,0,0.2-0.1,0.2v0.2c1,1.9,2.2,3.7,3.4,5.4c0.6,0.6,1.2,1.1,1.8,1.7h0.1
	C298,126.4,296.3,123.9,294.4,121.5L294.4,121.5z M294.4,118.8c0.1,0.1,0.2,0.3,0.3,0.4h0.1c3.1-3.5,5.7-6.5,7.8-9.1V110
	c-2,1.8-3.8,3.7-5.6,5.7C295.9,116.9,295,117.9,294.4,118.8L294.4,118.8z M294.6,119.8v0.2c0.2,0.3,0.4,0.4,0.4,0.4l0.2-0.2v-0.1
	c-0.2-0.3-0.3-0.4-0.4-0.4C294.7,119.7,294.7,119.8,294.6,119.8L294.6,119.8z M301.2,112.1c-0.6,0.7-2.1,2.5-4.5,5.2
	c-1.2,1.4-1.8,2.1-1.8,2.1v0.1c0.1,0.1,0.2,0.3,0.3,0.4c0.6-0.6,1.1-1.2,1.6-1.9C297.7,116.9,299.2,114.9,301.2,112.1L301.2,112.1
	L301.2,112.1z M295.3,120.3l-0.2,0.3c1.2,1.7,2.6,3.3,4,4.8v-0.1c-0.8-1.4-1.7-2.6-2.7-3.9C296.1,121,295.7,120.7,295.3,120.3
	L295.3,120.3z M301.6,111.7l-0.3,0.4v0.1l0,0C301.5,112,301.6,111.8,301.6,111.7L301.6,111.7z M301.9,111.4L301.9,111.4
	c0.4-0.3,0.6-0.6,0.8-1v-0.1C302.4,110.7,302.1,111,301.9,111.4L301.9,111.4z M303.3,109.5l0.1,0.1l-0.1,0.1v0.1h0.1l0.7-1H304
	C303.5,109.2,303.3,109.4,303.3,109.5L303.3,109.5z"/>
<path class="st5" d="M204,108.2c0.1,0,0.1,0,0.1,0.1l0,0l0,0c-2.2,2.5-4.2,5.1-6.1,7.7c-0.1,0-1.1,1.4-3.1,4.1
	c1.6,1.9,3.1,4,4.4,6.2c0.8,1.1,1.4,2.1,2,3v0.2c0,0.1,0,0.1-0.1,0.1l0,0c-0.6-0.9-1.2-1.8-1.7-2.7c-0.6-0.8-2.1-2.7-4.7-5.8
	c0-0.1-0.1-0.2-0.3-0.4c-0.2,0.4-0.4,0.6-0.4,0.6c1.9,2.5,3.7,5.1,5.4,7.8c0.3,0.3,0.5,0.5,0.5,0.7l-0.1,0.1l-2.1-1.7v0.1
	c1.4,1.8,2.9,3.4,4.6,4.9v0.1h-0.1c-2-1.8-3.8-3.7-5.3-5.9c-1.4-1.5-2.6-3.1-3.6-4.9h-0.1c-2.2,2.9-4.2,5.4-5.9,7.5h-0.1
	c-0.1,0-0.1,0-0.1-0.1l0,0c1.6-1.9,3.1-3.7,4.4-5.4c0.2-0.2,0.8-0.9,1.7-2.1c-0.2-0.4-0.3-0.6-0.4-0.7s-1.7,1.9-4.9,5.7
	c-0.3,0.2-0.6,0.5-0.8,0.8c-0.2,0.2-0.5,0.3-0.7,0.3l-0.1-0.2c0.6-0.7,2.6-3.2,6.1-7.6l0,0c-1.4-3.1-3-6.1-4.8-9c0,0-0.1,0-0.1-0.2
	h0.1c-0.3-0.4-0.5-0.7-0.7-1.1v-0.1c0-0.1,0-0.1,0.1-0.1c0.6,0.6,1.2,1.2,1.7,1.8l0.2-0.1c0.1,0,0.3,0.3,0.5,0.9
	c1.3,2.2,2.8,4.2,4.5,6c0.1,0,0.5-0.4,1.1-1.3c2-2.3,4.2-4.6,6.5-6.9C202.1,109.7,203,108.9,204,108.2L204,108.2z M186.6,127.8
	L186.6,127.8L186.6,127.8c0.4-0.3,0.8-0.6,1.1-1c-0.1,0-0.1-0.1-0.1-0.2C187.2,127,186.9,127.4,186.6,127.8z M187.6,111.4
	L187.6,111.4c1.3,2.6,2.7,5,4.3,7.3c0.2,0.4,0.5,0.7,0.8,1.1c0.3-0.2,0.4-0.4,0.4-0.6c-1.1-1.6-2.2-3.2-3.5-4.8
	c-0.2-0.4-0.4-0.7-0.7-1.1v0.3h-0.1c-0.1-0.7-0.5-1.3-1-1.8C187.9,111.6,187.7,111.5,187.6,111.4L187.6,111.4z M187.9,126.4
	L187.9,126.4c0.4-0.4,1.9-2.1,4.6-5.2c-0.1-0.3-0.2-0.4-0.3-0.4l0,0C190.6,122.6,189.2,124.4,187.9,126.4L187.9,126.4z M190.7,117.3
	L190.7,117.3c0.9,1.9,1.4,2.8,1.4,2.9s0.1,0.2,0.2,0.2s0.2-0.1,0.2-0.2C191.5,118.6,191,117.7,190.7,117.3L190.7,117.3z M191.9,119
	L191.9,119c0.2,0.4,0.4,0.8,0.7,1.1v-0.2C192.3,119.4,192.1,119.1,191.9,119L191.9,119z M192.5,120.4c-0.1,0.2-0.1,0.2-0.2,0.2
	c0.1,0.3,0.2,0.4,0.3,0.4s0.1-0.1,0.2-0.2C192.8,120.7,192.7,120.5,192.5,120.4z M192.5,117.8c0.3,0.4,0.6,0.8,0.8,1.2h0.2v-0.2
	c-0.3-0.4-0.6-0.7-0.9-1H192.5z M192.7,120.1v0.2c0.1,0.3,0.2,0.4,0.3,0.4l0.1-0.2c-0.1-0.3-0.2-0.4-0.3-0.4H192.7z M192.8,121.5
	l0.4,0.6c0.1,0,0.2-0.2,0.2-0.3c-0.2-0.4-0.3-0.6-0.4-0.6S192.8,121.3,192.8,121.5L192.8,121.5z M192.9,119.9L192.9,119.9
	c0.1,0.1,0.2,0.2,0.2,0.4h0.1c0.2-0.1,0.4-0.3,0.5-0.6c-0.2-0.3-0.3-0.4-0.3-0.4C193.2,119.5,193,119.7,192.9,119.9L192.9,119.9z
	 M193.1,121c0.1,0.2,0.3,0.5,0.4,0.7c0.1-0.1,0.1-0.2,0.2-0.3l-0.4-0.5C193.2,120.8,193.1,120.9,193.1,121L193.1,121z M193.4,122
	c-0.1,0.1-0.1,0.2-0.1,0.3c0.7,1.3,1.6,2.6,2.6,3.7v-0.1l-2.4-3.9H193.4z M193.4,120.6L193.4,120.6c0.1,0.2,0.2,0.4,0.3,0.6h0.1
	c0.3-0.3,0.4-0.5,0.4-0.6c-0.1-0.2-0.2-0.4-0.4-0.5C193.8,120,193.7,120.2,193.4,120.6L193.4,120.6z M193.5,119.1L193.5,119.1
	c0,0.2,0.1,0.4,0.3,0.5h0.1c0.1,0,0.1,0,0.1-0.1l0,0v-0.1c0,0-0.1-0.2-0.3-0.3H193.5z M193.7,121.5c0,0.1,0,0.2-0.1,0.2v0.2
	c1,1.9,2.2,3.7,3.4,5.4c0.6,0.6,1.2,1.1,1.8,1.6h0.1C197.4,126.4,195.7,123.9,193.7,121.5L193.7,121.5z M193.7,118.8
	c0.1,0.1,0.2,0.3,0.3,0.4h0.1c3.1-3.5,5.7-6.5,7.8-9.1V110c-2,1.8-3.8,3.7-5.6,5.7C195.3,116.9,194.4,117.9,193.7,118.8L193.7,118.8
	z M194,119.8v0.2c0.2,0.3,0.4,0.4,0.4,0.4l0.2-0.2v-0.1c-0.2-0.3-0.3-0.4-0.4-0.4C194.1,119.7,194.1,119.8,194,119.8L194,119.8z
	 M200.6,112.1c-0.6,0.7-2.1,2.5-4.5,5.2c-1.2,1.4-1.8,2.1-1.8,2.1v0.1c0.1,0.1,0.2,0.3,0.3,0.4c0.6-0.6,1.1-1.2,1.6-1.9
	C197.1,116.9,198.6,114.9,200.6,112.1L200.6,112.1L200.6,112.1z M194.7,120.3l-0.2,0.3c1.2,1.7,2.6,3.3,4,4.8v-0.1
	c-0.8-1.4-1.7-2.6-2.7-3.9C195.5,121,195.1,120.7,194.7,120.3L194.7,120.3z M201,111.7l-0.3,0.4v0.1h0.1
	C200.9,112,200.9,111.8,201,111.7L201,111.7z M201.2,111.4L201.2,111.4c0.4-0.3,0.6-0.6,0.8-1v-0.1
	C201.8,110.7,201.5,111,201.2,111.4L201.2,111.4z M202.6,109.5l0.1,0.1l-0.1,0.1v0.1h0.1l0.7-1h-0.1
	C202.9,109.2,202.6,109.4,202.6,109.5L202.6,109.5z"/>
<path class="st5" d="M104.6,107.8C104.7,107.8,104.7,107.8,104.6,107.8L104.6,107.8L104.6,107.8c-2.1,2.6-4.1,5.2-6,7.8
	c-0.1,0-1.1,1.4-3.1,4.1c1.6,1.9,3.1,4,4.4,6.2c0.8,1.1,1.4,2.1,2,3v0.2c0,0.1,0,0.1-0.1,0.1l0,0c-0.6-0.9-1.2-1.8-1.7-2.7
	c-0.6-0.8-2.1-2.7-4.7-5.8c0-0.1-0.1-0.2-0.3-0.4c-0.2,0.4-0.4,0.6-0.4,0.6c1.9,2.5,3.7,5.1,5.4,7.8c0.3,0.3,0.5,0.5,0.5,0.7
	l-0.1,0.1l-2.1-1.7v0.1c1.4,1.8,2.9,3.4,4.6,4.9v0.1h-0.1c-2-1.8-3.8-3.7-5.3-5.9c-1.4-1.5-2.6-3.1-3.6-4.9h-0.1
	c-2.2,2.9-4.2,5.4-5.9,7.5h-0.1c-0.1,0-0.1,0-0.1-0.1l0,0c1.6-1.9,3.1-3.7,4.4-5.4c0.2-0.2,0.8-0.9,1.7-2.1
	c-0.2-0.4-0.3-0.6-0.4-0.7s-1.7,1.9-4.9,5.7c-0.3,0.2-0.6,0.5-0.8,0.8c-0.2,0.2-0.5,0.3-0.7,0.3l-0.1-0.2c0.6-0.7,2.6-3.2,6.1-7.6
	l0,0c-1.4-3.1-3-6.1-4.8-9c0,0-0.1,0-0.1-0.2h0.1c-0.3-0.4-0.5-0.7-0.7-1.1v0c0-0.1,0-0.1,0.1-0.1c0.6,0.6,1.2,1.2,1.7,1.8l0.2-0.1
	c0.1,0,0.3,0.3,0.5,0.9c1.3,2.2,2.8,4.2,4.5,6c0.1,0,0.5-0.4,1.1-1.3c2-2.3,4.2-4.6,6.5-6.9C102.7,109.3,103.6,108.6,104.6,107.8
	L104.6,107.8z M87.2,127.5L87.2,127.5L87.2,127.5c0.4-0.3,0.8-0.6,1.1-1c-0.1,0-0.1-0.1-0.1-0.2C87.8,126.7,87.5,127.1,87.2,127.5z
	 M88.2,111.1L88.2,111.1c1.3,2.6,2.7,5,4.3,7.3c0.2,0.4,0.5,0.7,0.8,1.1c0.3-0.2,0.4-0.4,0.4-0.6c-1.1-1.6-2.2-3.2-3.5-4.8
	c-0.2-0.4-0.4-0.7-0.7-1.1v0.3h-0.1c-0.1-0.7-0.5-1.3-1-1.8C88.5,111.2,88.3,111.2,88.2,111.1L88.2,111.1z M88.5,126.1L88.5,126.1
	c0.4-0.4,1.9-2.1,4.6-5.2c-0.1-0.3-0.2-0.4-0.3-0.4l0,0C91.2,122.2,89.8,124.1,88.5,126.1L88.5,126.1z M91.3,117L91.3,117
	c0.9,1.9,1.4,2.8,1.4,2.9s0.1,0.2,0.2,0.2s0.2-0.1,0.2-0.2C92.1,118.2,91.6,117.3,91.3,117L91.3,117z M92.5,118.7L92.5,118.7
	c0.2,0.4,0.4,0.8,0.7,1.1v-0.2C92.9,119.1,92.7,118.8,92.5,118.7L92.5,118.7z M93.1,120.1c-0.1,0.2-0.1,0.2-0.2,0.2
	c0.1,0.3,0.2,0.4,0.3,0.4s0.1-0.1,0.2-0.2C93.4,120.3,93.3,120.2,93.1,120.1z M93.1,117.5c0.3,0.4,0.6,0.8,0.8,1.2h0.2v-0.2
	C93.8,118.1,93.5,117.8,93.1,117.5L93.1,117.5z M93.3,119.8v0.2c0.1,0.3,0.2,0.4,0.3,0.4l0.1-0.2C93.6,119.9,93.5,119.8,93.3,119.8
	L93.3,119.8z M93.4,121.2l0.4,0.6c0.1,0,0.2-0.2,0.2-0.3c-0.2-0.4-0.3-0.6-0.4-0.6S93.4,121,93.4,121.2L93.4,121.2z M93.5,119.6
	L93.5,119.6c0.1,0.1,0.2,0.2,0.2,0.4h0.1c0.2-0.1,0.4-0.3,0.5-0.6c-0.2-0.3-0.3-0.4-0.3-0.4C93.8,119.2,93.6,119.3,93.5,119.6
	L93.5,119.6z M93.7,120.7c0.1,0.2,0.3,0.5,0.4,0.7c0.1-0.1,0.1-0.2,0.2-0.3l-0.4-0.5C93.8,120.5,93.7,120.6,93.7,120.7L93.7,120.7z
	 M94,121.7c-0.1,0.1-0.1,0.2-0.1,0.3c0.7,1.3,1.6,2.6,2.6,3.7v-0.1L94,121.7L94,121.7z M94,120.2L94,120.2c0.1,0.2,0.2,0.4,0.3,0.6
	h0.1c0.3-0.3,0.4-0.5,0.4-0.6c-0.1-0.2-0.2-0.4-0.4-0.5C94.4,119.7,94.3,119.8,94,120.2L94,120.2z M94.1,118.8L94.1,118.8
	c0,0.2,0.1,0.4,0.3,0.5h0.1c0.1,0,0.1,0,0.1-0.1l0,0v-0.1c0,0-0.1-0.2-0.3-0.3H94.1z M94.3,121.2c0,0.1,0,0.2-0.1,0.2v0.2
	c1,1.9,2.2,3.7,3.4,5.4c0.6,0.6,1.2,1.1,1.8,1.6h0.1C98,126.1,96.3,123.6,94.3,121.2L94.3,121.2z M94.3,118.5
	c0.1,0.1,0.2,0.3,0.3,0.4h0.1c3.1-3.5,5.7-6.5,7.8-9.1v-0.1c-2,1.8-3.8,3.7-5.6,5.7C95.9,116.6,95,117.6,94.3,118.5L94.3,118.5z
	 M94.6,119.5v0.2c0.2,0.3,0.4,0.4,0.4,0.4l0.2-0.2v-0.1c-0.2-0.3-0.3-0.4-0.4-0.4C94.7,119.3,94.7,119.5,94.6,119.5L94.6,119.5z
	 M101.2,111.8c-0.6,0.7-2.1,2.5-4.5,5.2c-1.2,1.4-1.8,2.1-1.8,2.1v0.1c0.1,0.1,0.2,0.3,0.3,0.4c0.6-0.6,1.1-1.2,1.6-1.9
	C97.7,116.6,99.2,114.6,101.2,111.8L101.2,111.8L101.2,111.8z M95.3,120l-0.2,0.3c1.2,1.7,2.6,3.3,4,4.8V125
	c-0.8-1.4-1.7-2.6-2.7-3.9C96.1,120.7,95.7,120.3,95.3,120L95.3,120z M101.6,111.3l-0.3,0.4v0.1h0.1
	C101.5,111.7,101.5,111.5,101.6,111.3L101.6,111.3z M101.8,111.1L101.8,111.1c0.4-0.3,0.6-0.6,0.8-1V110
	C102.4,110.3,102.1,110.7,101.8,111.1L101.8,111.1z M103.2,109.2L103.2,109.2v0.2v0.1h0.1l0.7-1h-0.1
	C103.5,108.8,103.2,109.1,103.2,109.2L103.2,109.2z"/>
<path class="st5" d="M607.5,108.2C607.6,108.2,607.6,108.2,607.5,108.2L607.5,108.2L607.5,108.2c-2.1,2.6-4.1,5.2-6,7.8
	c-0.1,0-1.1,1.4-3.1,4.1c1.6,1.9,3.1,4,4.4,6.2c0.8,1.1,1.4,2.1,2,3v0.2c0,0.1,0,0.1-0.1,0.1l0,0c-0.6-0.9-1.2-1.8-1.7-2.7
	c-0.6-0.8-2.1-2.7-4.7-5.8c0-0.1-0.1-0.2-0.3-0.4c-0.2,0.4-0.4,0.6-0.5,0.6c1.9,2.5,3.7,5.1,5.4,7.8c0.3,0.3,0.5,0.5,0.5,0.7
	l-0.1,0.1l-2.1-1.7v0.1c1.4,1.8,2.9,3.4,4.6,4.9v0.1h-0.1c-2-1.8-3.8-3.7-5.3-5.9c-1.4-1.5-2.6-3.2-3.6-4.9l0,0
	c-2.2,2.9-4.2,5.4-5.9,7.5h-0.1c-0.1,0-0.1,0-0.1-0.1l0,0c1.6-1.9,3.1-3.7,4.4-5.4c0.2-0.2,0.8-0.9,1.7-2.1
	c-0.2-0.4-0.3-0.6-0.4-0.7s-1.7,1.9-4.9,5.7c-0.3,0.2-0.6,0.5-0.8,0.8c-0.2,0.2-0.5,0.3-0.7,0.3l-0.1-0.2c0.6-0.7,2.6-3.2,6.1-7.6
	l0,0c-1.4-3.1-3-6.1-4.8-9c0,0-0.1,0-0.1-0.2h0.1c-0.3-0.4-0.5-0.7-0.7-1.1v-0.1c0-0.1,0-0.1,0.1-0.1c0.6,0.6,1.1,1.2,1.6,1.8
	l0.2-0.1c0.1,0,0.3,0.3,0.5,0.9c1.3,2.2,2.8,4.2,4.5,6c0.1,0,0.5-0.4,1.1-1.3c2-2.3,4.2-4.6,6.5-6.9
	C605.6,109.7,606.5,108.9,607.5,108.2L607.5,108.2z M590.2,127.8L590.2,127.8L590.2,127.8c0.4-0.3,0.7-0.6,1-1
	c-0.1,0-0.1-0.1-0.1-0.2C590.7,127,590.4,127.4,590.2,127.8z M591.2,111.4L591.2,111.4c1.3,2.6,2.7,5,4.3,7.3
	c0.2,0.4,0.5,0.7,0.8,1.1c0.3-0.2,0.5-0.4,0.5-0.6c-1.1-1.6-2.2-3.2-3.5-4.8c-0.2-0.4-0.4-0.8-0.7-1.1v0.3h-0.1
	c-0.1-0.7-0.5-1.3-1-1.8C591.4,111.6,591.3,111.5,591.2,111.4z M591.4,126.4L591.4,126.4c0.5-0.4,2-2.1,4.6-5.2
	c-0.1-0.3-0.2-0.4-0.3-0.4l0,0C594.3,122.6,592.8,124.4,591.4,126.4L591.4,126.4z M594.3,117.3L594.3,117.3c0.9,1.9,1.4,2.8,1.4,2.9
	s0.1,0.2,0.2,0.2s0.2-0.1,0.2-0.2C595.1,118.6,594.5,117.7,594.3,117.3L594.3,117.3z M595.5,119L595.5,119c0.2,0.4,0.4,0.8,0.7,1.1
	v-0.2C595.8,119.4,595.6,119.1,595.5,119L595.5,119z M596.1,120.4c-0.1,0.2-0.1,0.2-0.2,0.2c0.1,0.3,0.2,0.4,0.3,0.4
	s0.1-0.1,0.2-0.2C596.3,120.7,596.2,120.5,596.1,120.4L596.1,120.4z M596.1,117.8c0.3,0.4,0.6,0.8,0.8,1.2h0.1v-0.2
	C596.7,118.5,596.4,118.2,596.1,117.8L596.1,117.8z M596.2,120.1v0.2c0.1,0.3,0.2,0.4,0.3,0.4l0.1-0.2
	C596.5,120.2,596.4,120.1,596.2,120.1L596.2,120.1z M596.3,121.5l0.4,0.6c0.1,0,0.2-0.2,0.2-0.3c-0.2-0.4-0.3-0.6-0.4-0.6
	S596.3,121.3,596.3,121.5L596.3,121.5z M596.5,119.9L596.5,119.9c0.1,0.1,0.2,0.2,0.2,0.4l0,0c0.2-0.1,0.4-0.3,0.5-0.6
	c-0.2-0.3-0.3-0.4-0.3-0.4C596.7,119.5,596.6,119.7,596.5,119.9L596.5,119.9z M596.6,121c0.1,0.2,0.3,0.5,0.5,0.7
	c0.1-0.1,0.1-0.2,0.2-0.3l-0.5-0.5C596.7,120.8,596.7,120.9,596.6,121L596.6,121z M597,122c-0.1,0.1-0.1,0.2-0.1,0.3
	c0.7,1.3,1.6,2.6,2.6,3.7v-0.1L597,122L597,122z M597,120.6L597,120.6c0.1,0.2,0.2,0.4,0.3,0.6h0.1c0.3-0.3,0.5-0.5,0.5-0.6
	c-0.1-0.2-0.2-0.4-0.4-0.5C597.4,120,597.2,120.2,597,120.6L597,120.6z M597.1,119.1L597.1,119.1c0,0.2,0.1,0.4,0.3,0.5h0.1
	c0.1,0,0.1,0,0.1-0.1l0,0v-0.1c0,0-0.1-0.2-0.3-0.3H597.1z M597.3,121.5c0,0.1,0,0.2-0.1,0.2v0.2c1,1.9,2.2,3.7,3.4,5.4
	c0.6,0.6,1.2,1.1,1.8,1.6h0.1C601,126.4,599.3,123.9,597.3,121.5L597.3,121.5z M597.3,118.8c0.1,0.1,0.2,0.3,0.3,0.4h0.1
	c3.1-3.5,5.7-6.5,7.8-9.1V110c-2,1.8-3.8,3.7-5.6,5.7C598.9,116.9,598,117.9,597.3,118.8L597.3,118.8z M597.6,119.8v0.2
	c0.2,0.3,0.3,0.4,0.4,0.4l0.2-0.2v-0.1c-0.2-0.3-0.3-0.4-0.4-0.4C597.7,119.7,597.6,119.8,597.6,119.8L597.6,119.8z M604.2,112.1
	c-0.6,0.7-2.1,2.5-4.5,5.2c-1.2,1.4-1.8,2.1-1.8,2.1v0.1c0.1,0.1,0.2,0.3,0.3,0.4c0.6-0.6,1.1-1.2,1.6-1.9
	C600.7,116.9,602.2,114.9,604.2,112.1L604.2,112.1L604.2,112.1z M598.3,120.3l-0.2,0.3c1.2,1.7,2.6,3.3,4,4.8v-0.1
	c-0.8-1.4-1.7-2.6-2.7-3.9C599,121,598.7,120.7,598.3,120.3L598.3,120.3z M604.6,111.7l-0.3,0.4v0.1l0,0
	C604.4,112,604.5,111.8,604.6,111.7L604.6,111.7z M604.8,111.4L604.8,111.4c0.4-0.3,0.6-0.6,0.8-1v-0.1
	C605.3,110.7,605.1,111,604.8,111.4L604.8,111.4z M606.2,109.5L606.2,109.5v0.2v0.1h0.1l0.7-1h-0.1
	C606.5,109.2,606.2,109.4,606.2,109.5L606.2,109.5z"/>
<path class="st5" d="M506.7,108.2c0.1,0,0.1,0,0.1,0.1l0,0l0,0c-2.2,2.5-4.2,5.1-6.1,7.7c-0.1,0-1.1,1.4-3.1,4.1
	c1.6,1.9,3.1,4,4.4,6.2c0.8,1.1,1.4,2.1,2,3v0.2c0,0.1,0,0.1-0.1,0.1l0,0c-0.6-0.9-1.2-1.8-1.7-2.7c-0.5-0.8-2.1-2.7-4.7-5.8
	c0-0.1-0.1-0.2-0.3-0.4c-0.2,0.4-0.4,0.6-0.5,0.6c1.9,2.5,3.7,5.1,5.4,7.8c0.3,0.3,0.5,0.5,0.5,0.7l-0.1,0.1l-2.1-1.7v0.1
	c1.4,1.8,2.9,3.4,4.6,4.9v0.1h-0.1c-2-1.8-3.8-3.7-5.3-5.9c-1.4-1.5-2.6-3.2-3.6-4.9l0,0c-2.2,2.9-4.2,5.4-5.9,7.5l0,0
	c-0.1,0-0.1,0-0.1-0.1l0,0c1.6-1.9,3.1-3.7,4.4-5.4c0.2-0.2,0.8-0.9,1.7-2.1c-0.2-0.4-0.4-0.6-0.5-0.7c-0.1-0.1-1.7,1.9-4.9,5.7
	c-0.3,0.2-0.6,0.5-0.8,0.8c-0.2,0.2-0.5,0.3-0.7,0.3l-0.1-0.2c0.6-0.7,2.6-3.2,6.1-7.6l0,0c-1.4-3.1-3-6.1-4.8-9c0,0,0,0,0-0.2l0,0
	c-0.3-0.4-0.5-0.8-0.7-1.1v-0.1c0-0.1,0-0.1,0.1-0.1l0,0c0.6,0.6,1.1,1.2,1.7,1.8l0.2-0.1c0.1,0,0.3,0.3,0.5,0.9
	c1.3,2.2,2.8,4.2,4.5,6c0.1,0,0.5-0.4,1.1-1.3c2-2.3,4.2-4.6,6.5-6.9C504.7,109.7,505.6,108.9,506.7,108.2L506.7,108.2z
	 M489.3,127.8L489.3,127.8L489.3,127.8c0.4-0.3,0.8-0.6,1.1-1c-0.1,0-0.1-0.1-0.1-0.2S489.9,127.1,489.3,127.8z M490.3,111.4
	L490.3,111.4c1.3,2.6,2.7,5,4.3,7.3c0.2,0.4,0.5,0.7,0.8,1.1c0.3-0.2,0.5-0.4,0.5-0.6c-1.1-1.6-2.2-3.2-3.5-4.8
	c-0.2-0.4-0.4-0.7-0.7-1.1v0.3h-0.1c-0.1-0.7-0.5-1.3-1-1.8C490.5,111.6,490.4,111.5,490.3,111.4z M490.5,126.4L490.5,126.4
	c0.4-0.4,2-2.1,4.6-5.2c-0.1-0.3-0.2-0.4-0.3-0.4h-0.1C493.3,122.6,491.9,124.4,490.5,126.4L490.5,126.4z M493.4,117.3L493.4,117.3
	c0.9,1.9,1.4,2.8,1.4,2.9s0.1,0.2,0.2,0.2c0.1,0,0.2-0.1,0.2-0.2C494.2,118.6,493.6,117.7,493.4,117.3L493.4,117.3z M494.6,119
	L494.6,119c0.2,0.4,0.4,0.8,0.7,1.1v-0.2C495.1,119.6,494.9,119.3,494.6,119L494.6,119z M495.2,120.4c-0.1,0.2-0.1,0.2-0.2,0.2
	c0.1,0.3,0.2,0.4,0.3,0.4s0.1-0.1,0.2-0.2C495.4,120.7,495.4,120.5,495.2,120.4L495.2,120.4z M495.2,117.8c0.3,0.4,0.5,0.8,0.8,1.2
	h0.2v-0.2C495.9,118.5,495.6,118.2,495.2,117.8L495.2,117.8z M495.3,120.1v0.2c0.1,0.3,0.2,0.4,0.3,0.4l0.1-0.2
	C495.6,120.2,495.5,120.1,495.3,120.1L495.3,120.1z M495.5,121.5l0.4,0.6c0.1,0,0.2-0.2,0.2-0.3c-0.2-0.4-0.3-0.6-0.4-0.6
	C495.6,121.2,495.5,121.3,495.5,121.5L495.5,121.5z M495.6,119.9L495.6,119.9c0.1,0.1,0.2,0.2,0.2,0.4l0,0c0.2-0.1,0.4-0.3,0.5-0.6
	c-0.2-0.3-0.3-0.4-0.3-0.4C495.9,119.3,495.8,119.5,495.6,119.9L495.6,119.9z M495.7,121c0.1,0.2,0.3,0.5,0.5,0.7
	c0.1-0.1,0.1-0.2,0.2-0.3l-0.4-0.5C495.9,120.8,495.8,120.9,495.7,121L495.7,121z M496.1,122c-0.1,0.1-0.1,0.2-0.1,0.3
	c0.7,1.3,1.6,2.6,2.6,3.7v-0.1L496.1,122L496.1,122z M496.1,120.6L496.1,120.6c0.1,0.2,0.2,0.4,0.3,0.6h0.1c0.3-0.3,0.4-0.5,0.4-0.6
	c-0.1-0.2-0.2-0.4-0.4-0.5C496.3,120.2,496.2,120.4,496.1,120.6L496.1,120.6z M496.2,119.1L496.2,119.1c0,0.2,0.1,0.4,0.3,0.5l0,0
	c0.1,0,0.1,0,0.1-0.1l0,0v-0.1c0,0-0.1-0.2-0.3-0.3H496.2z M496.4,121.5c0,0.1-0.1,0.2-0.1,0.2v0.2c1,1.9,2.2,3.7,3.4,5.4
	c0.6,0.6,1.2,1.1,1.9,1.6h0.1C500.1,126.4,498.4,123.9,496.4,121.5L496.4,121.5z M496.4,118.8c0.1,0.1,0.2,0.3,0.3,0.4h0.1
	c3.1-3.5,5.7-6.5,7.8-9.1V110c-2,1.8-3.8,3.7-5.6,5.7C498,116.9,497.1,117.9,496.4,118.8L496.4,118.8z M496.7,119.8v0.2
	c0.2,0.3,0.3,0.4,0.4,0.4l0.2-0.2v-0.1c-0.2-0.3-0.3-0.4-0.4-0.4C496.8,119.7,496.8,119.8,496.7,119.8L496.7,119.8z M503.3,112.1
	c-0.6,0.7-2.1,2.5-4.5,5.2c-1.2,1.4-1.8,2.1-1.8,2.1v0.1c0.1,0.1,0.2,0.3,0.3,0.4c0.6-0.6,1.1-1.2,1.6-1.9
	C499.8,116.9,501.3,114.9,503.3,112.1L503.3,112.1L503.3,112.1z M497.4,120.3l-0.2,0.3c1.3,1.7,2.6,3.3,4,4.8v-0.1
	c-0.8-1.4-1.7-2.6-2.7-3.9C498.1,121,497.8,120.7,497.4,120.3L497.4,120.3z M503.7,111.7l-0.3,0.4v0.1l0,0
	C503.5,112,503.6,111.8,503.7,111.7L503.7,111.7z M503.9,111.4L503.9,111.4c0.4-0.3,0.6-0.6,0.8-1v-0.1
	C504.4,110.7,504.2,111,503.9,111.4L503.9,111.4z M505.3,109.5L505.3,109.5v0.2v0.1l0,0l0.7-1l0,0
	C505.6,109.2,505.3,109.4,505.3,109.5L505.3,109.5z"/>
</svg>
